<svg xmlns="http://www.w3.org/2000/svg" viewBox="0 0 64 64"><g id="_02-Pressure" data-name="02-Pressure"><path d="M47,37a13,13,0,0,0,.109-25.994,17.982,17.982,0,0,0-33.68,4.119A10.993,10.993,0,0,0,4,26c0,6.075,6,11,14,11Z" style="fill:#a4eaff"/><path d="M47.11,11H47a12.991,12.991,0,0,0-11.3,6.59A12,12,0,0,0,23.05,37H18C10,37,4,32.08,4,26a11,11,0,0,1,9.43-10.88A17.985,17.985,0,0,1,47.11,11Z" style="fill:#83d9f2"/><path d="M16,27a5.828,5.828,0,0,1-7,3c-2.681-.874-4.271-3.333-4.8-6.085A11.009,11.009,0,0,0,4,26c0,6.08,6,11,14,11h5.05a12,12,0,0,1,7.29-19.872C23.63,17.152,19.179,21.437,16,27Z" style="fill:#69cae6"/><path d="M35.143,17.422c.2.054.4.105.591.168A12.991,12.991,0,0,1,47.034,11h.11a18,18,0,0,0-1.111-1.908C37.581,9.876,35.573,15.574,35.143,17.422Z" style="fill:#69cae6"/><path d="M63,63H62c-7.018,0-13.264-5.385-14.692-6.707l-2.373,2.373a1.134,1.134,0,0,1-1.935-.8v-8.6A2.267,2.267,0,0,1,45.267,47h8.6a1.134,1.134,0,0,1,.8,1.935l-2.831,2.831C53.677,53.378,58.332,57,63,57Z" style="fill:#a4eaff"/><path d="M1,63H2c7.018,0,13.264-5.385,14.692-6.707l2.373,2.373a1.134,1.134,0,0,0,1.935-.8v-8.6A2.267,2.267,0,0,0,18.733,47h-8.6a1.134,1.134,0,0,0-.8,1.935l2.831,2.831C10.323,53.378,5.668,57,1,57Z" style="fill:#a4eaff"/><path d="M27,49V43H24.8a1.928,1.928,0,0,1-1.63-1.112,2.189,2.189,0,0,1,.345-2.268l5.87-6.4A3.554,3.554,0,0,1,32,32h0a3.554,3.554,0,0,1,2.615,1.216l5.87,6.4a2.189,2.189,0,0,1,.345,2.268A1.928,1.928,0,0,1,39.2,43H37v6Z" style="fill:#83d9f2"/><path d="M29.385,35.216a3.42,3.42,0,0,1,5.23,0l5.87,6.4a1.838,1.838,0,0,1,.263.4,1.337,1.337,0,0,0,.082-.129,2.189,2.189,0,0,0-.345-2.268l-5.87-6.4a3.42,3.42,0,0,0-5.23,0l-5.87,6.4a2.189,2.189,0,0,0-.345,2.268,1.337,1.337,0,0,0,.082.129,1.838,1.838,0,0,1,.263-.4Z" style="fill:#69cae6"/><path d="M34,46H31a1,1,0,0,1-1-1V39a1,1,0,0,1,2,0v5h2a1,1,0,0,1,0,2Z" style="fill:#fff"/><rect x="27" y="50" width="10" height="2" transform="translate(64 102) rotate(180)" style="fill:#a4eaff"/><rect x="27" y="53" width="10" height="1" transform="translate(64 107) rotate(180)" style="fill:#ccf3ff"/></g></svg>