<svg id="_01-Pressure" data-name="01-Pressure" xmlns="http://www.w3.org/2000/svg" viewBox="0 0 64 64"><path d="M27,39v6H24.8a1.928,1.928,0,0,0-1.63,1.112,2.189,2.189,0,0,0,.345,2.268l5.87,6.4A3.554,3.554,0,0,0,32,56h0a3.554,3.554,0,0,0,2.615-1.216l5.87-6.4a2.189,2.189,0,0,0,.345-2.268A1.928,1.928,0,0,0,39.2,45H37V39Z" style="fill:#ffb145"/><path d="M40.748,45.982a1.82,1.82,0,0,1-.263.4l-5.87,6.4a3.42,3.42,0,0,1-5.23,0l-5.87-6.4a1.82,1.82,0,0,1-.263-.4,1.488,1.488,0,0,0-.082.13,2.189,2.189,0,0,0,.345,2.268l5.87,6.4a3.42,3.42,0,0,0,5.23,0l5.87-6.4a2.189,2.189,0,0,0,.345-2.268A1.488,1.488,0,0,0,40.748,45.982Z" style="fill:#fca124"/><path d="M34.032,44a1.008,1.008,0,0,0-1.016,1v2H30.984V45a1.016,1.016,0,0,0-2.032,0v6a1.016,1.016,0,0,0,2.032,0V49h2.032v2a1.016,1.016,0,0,0,2.032,0V45A1.008,1.008,0,0,0,34.032,44Z" style="fill:#fff"/><rect x="27.419" y="36" width="10.161" height="2" style="fill:#ffcc85"/><rect x="27.419" y="34" width="10.161" height="1" style="fill:#ffd8a1"/><circle cx="32" cy="19" r="11" style="fill:#ffb145"/><path d="M34,26A10.964,10.964,0,0,1,23.378,12.182a10.993,10.993,0,1,0,19.244,9.636A10.974,10.974,0,0,1,34,26Z" style="fill:#fca124"/><path d="M50.29,18H46.226a1,1,0,1,0,0,2H50.29a1,1,0,1,0,0-2Z" style="fill:#ffdc78"/><path d="M18.79,19a1.008,1.008,0,0,0-1.016-1H13.71a1,1,0,1,0,0,2h4.064A1.008,1.008,0,0,0,18.79,19Z" style="fill:#ffdc78"/><path d="M32,1a1.008,1.008,0,0,0-1.016,1V5a1.016,1.016,0,0,0,2.032,0V2A1.008,1.008,0,0,0,32,1Z" style="fill:#ffdc78"/><path d="M32,32a1.008,1.008,0,0,0-1.016,1v3a1.016,1.016,0,0,0,2.032,0V33A1.008,1.008,0,0,0,32,32Z" style="fill:#ffdc78"/><path d="M42.778,28.192a1.029,1.029,0,0,0-1.437,0,.988.988,0,0,0,0,1.414l2.874,2.829a1.027,1.027,0,0,0,1.437,0,.988.988,0,0,0,0-1.414Z" style="fill:#ffdc78"/><path d="M19.785,5.565a1.027,1.027,0,0,0-1.437,0,.988.988,0,0,0,0,1.414l2.874,2.829a1.027,1.027,0,0,0,1.437,0,.988.988,0,0,0,0-1.414Z" style="fill:#ffdc78"/><path d="M21.222,28.192l-2.874,2.829a.988.988,0,0,0,0,1.414,1.027,1.027,0,0,0,1.437,0l2.874-2.829a.988.988,0,0,0,0-1.414A1.029,1.029,0,0,0,21.222,28.192Z" style="fill:#ffdc78"/><path d="M42.059,10.1a1.025,1.025,0,0,0,.719-.293l2.874-2.829a.988.988,0,0,0,0-1.414,1.027,1.027,0,0,0-1.437,0L41.341,8.394a.988.988,0,0,0,0,1.414A1.021,1.021,0,0,0,42.059,10.1Z" style="fill:#ffdc78"/><path d="M41,54s8,5,14,5v2.586A1.414,1.414,0,0,0,56.414,63h0a1.415,1.415,0,0,0,1-.414l5.172-5.172a1.415,1.415,0,0,0,.414-1v-.828a1.415,1.415,0,0,0-.414-1l-5.172-5.172a1.415,1.415,0,0,0-1-.414h0A1.414,1.414,0,0,0,55,50.414V53c-6,0-11-4-11-4Z" style="fill:#ffdc78"/><path d="M23,54s-8,5-14,5v2.586A1.414,1.414,0,0,1,7.586,63h0a1.415,1.415,0,0,1-1-.414L1.414,57.414a1.415,1.415,0,0,1-.414-1v-.828a1.415,1.415,0,0,1,.414-1l5.172-5.172a1.415,1.415,0,0,1,1-.414h0A1.414,1.414,0,0,1,9,50.414V53c6,0,11-4,11-4Z" style="fill:#ffdc78"/></svg>