<svg xmlns="http://www.w3.org/2000/svg" viewBox="0 0 64 64"><g id="_04-Damp" data-name="04-Damp"><path d="M47,37a13,13,0,0,0,.109-25.994,17.982,17.982,0,0,0-33.68,4.119A10.993,10.993,0,0,0,4,26c0,6.075,6,11,14,11Z" style="fill:#e4e4e9"/><path d="M47.11,11H47a12.991,12.991,0,0,0-11.3,6.59A12,12,0,0,0,23.05,37H18C10,37,4,32.08,4,26a11,11,0,0,1,9.43-10.88A17.985,17.985,0,0,1,47.11,11Z" style="fill:#d2d2d6"/><path d="M16,27a5.828,5.828,0,0,1-7,3c-2.681-.874-4.271-3.333-4.8-6.085A11.009,11.009,0,0,0,4,26c0,6.08,6,11,14,11h5.05a12,12,0,0,1,7.29-19.872C23.63,17.152,19.179,21.437,16,27Z" style="fill:#b9b9bd"/><path d="M35.143,17.422c.2.054.4.105.591.168A12.991,12.991,0,0,1,47.034,11h.11a18,18,0,0,0-1.111-1.908C37.581,9.876,35.573,15.574,35.143,17.422Z" style="fill:#b9b9bd"/><path d="M24,38a4,4,0,0,1-8,0c0-2.209,3-6,4-6S24,35.791,24,38Z" style="fill:#83d9f2"/><path d="M24,52a4,4,0,0,1-8,0c0-2.209,3-6,4-6S24,49.791,24,52Z" style="fill:#83d9f2"/><path d="M48,38a4,4,0,0,1-8,0c0-2.209,3-6,4-6S48,35.791,48,38Z" style="fill:#83d9f2"/><path d="M48,52a4,4,0,0,1-8,0c0-2.209,3-6,4-6S48,49.791,48,52Z" style="fill:#83d9f2"/><path d="M36,45a4,4,0,0,1-8,0c0-2.209,3-6,4-6S36,42.791,36,45Z" style="fill:#83d9f2"/><path d="M36,59a4,4,0,0,1-8,0c0-2.209,3-6,4-6S36,56.791,36,59Z" style="fill:#83d9f2"/><path d="M45,40a3.9,3.9,0,0,1-3.749-5.273A6.886,6.886,0,0,0,40,38a4,4,0,0,0,7.929.707A3.979,3.979,0,0,1,45,40Z" style="fill:#69cae6"/><path d="M33,47a3.9,3.9,0,0,1-3.749-5.273A6.886,6.886,0,0,0,28,45a4,4,0,0,0,7.929.707A3.979,3.979,0,0,1,33,47Z" style="fill:#69cae6"/><path d="M33,61a3.9,3.9,0,0,1-3.749-5.273A6.886,6.886,0,0,0,28,59a4,4,0,0,0,7.929.707A3.979,3.979,0,0,1,33,61Z" style="fill:#69cae6"/><path d="M45,54a3.9,3.9,0,0,1-3.749-5.273A6.886,6.886,0,0,0,40,52a4,4,0,0,0,7.929.707A3.979,3.979,0,0,1,45,54Z" style="fill:#69cae6"/><path d="M21,40a3.9,3.9,0,0,1-3.749-5.273A6.886,6.886,0,0,0,16,38a4,4,0,0,0,7.929.707A3.979,3.979,0,0,1,21,40Z" style="fill:#69cae6"/><path d="M21,54a3.9,3.9,0,0,1-3.749-5.273A6.886,6.886,0,0,0,16,52a4,4,0,0,0,7.929.707A3.979,3.979,0,0,1,21,54Z" style="fill:#69cae6"/></g></svg>