<svg xmlns="http://www.w3.org/2000/svg" viewBox="0 0 64 64"><g id="_06-Pour" data-name="06-Pour"><path d="M47,37a13,13,0,0,0,.109-25.994,17.982,17.982,0,0,0-33.68,4.119A10.993,10.993,0,0,0,4,26c0,6.075,6,11,14,11Z" style="fill:#b9b9bd"/><path d="M47.11,11H47a12.991,12.991,0,0,0-11.3,6.59A12,12,0,0,0,23.05,37H18C10,37,4,32.08,4,26a11,11,0,0,1,9.43-10.88A17.985,17.985,0,0,1,47.11,11Z" style="fill:#9b9b9e"/><path d="M16,27a5.828,5.828,0,0,1-7,3c-2.681-.874-4.271-3.333-4.8-6.085A11.009,11.009,0,0,0,4,26c0,6.08,6,11,14,11h5.05a12,12,0,0,1,7.29-19.872C23.63,17.152,19.179,21.437,16,27Z" style="fill:#7d7d80"/><path d="M35.143,17.422c.2.054.4.105.591.168A12.991,12.991,0,0,1,47.034,11h.11a18,18,0,0,0-1.111-1.908C37.581,9.876,35.573,15.574,35.143,17.422Z" style="fill:#7d7d80"/><path d="M53.109,44.34a1.987,1.987,0,0,1,.55,2.77l-8,12a2,2,0,0,1-3.32-2.22l8-12A1.987,1.987,0,0,1,53.109,44.34Z" style="fill:#80dbff"/><path d="M48.149,36.94,32.7,62.05A1.989,1.989,0,0,1,31,63a2.019,2.019,0,0,1-1.05-.3,2,2,0,0,1-.65-2.75L43.419,37H47A10.931,10.931,0,0,0,48.149,36.94Z" style="fill:#80dbff"/><path d="M36.12,37,20.7,62.05A1.989,1.989,0,0,1,19,63a2.019,2.019,0,0,1-1.05-.3,2,2,0,0,1-.65-2.75L31.42,37Z" style="fill:#80dbff"/><path d="M24.12,37,8.7,62.05A1.989,1.989,0,0,1,7,63a2.019,2.019,0,0,1-1.05-.3,2,2,0,0,1-.65-2.75L19.42,37Z" style="fill:#80dbff"/><path d="M9.111,39.34a1.987,1.987,0,0,1,.55,2.77l-4,6a2,2,0,0,1-3.32-2.22l4-6A1.987,1.987,0,0,1,9.111,39.34Z" style="fill:#80dbff"/><path d="M48.149,36.94A10.931,10.931,0,0,1,47,37h-3.58l-1.845,3h4.692Z" style="fill:#4ab8f7"/><polygon points="31.42 37 29.574 40 34.273 40 36.12 37 31.42 37" style="fill:#4ab8f7"/><polygon points="19.42 37 17.575 40 22.274 40 24.12 37 19.42 37" style="fill:#4ab8f7"/></g></svg>