<svg xmlns="http://www.w3.org/2000/svg" viewBox="0 0 64 64"><g id="_10-Sleet" data-name="10-Sleet"><path d="M47,37a13,13,0,0,0,.109-25.994,17.982,17.982,0,0,0-33.68,4.119A10.993,10.993,0,0,0,4,26c0,6.075,6,11,14,11Z" style="fill:#d2d2d6"/><path d="M47.11,11H47a12.991,12.991,0,0,0-11.3,6.59A12,12,0,0,0,23.05,37H18C10,37,4,32.08,4,26a11,11,0,0,1,9.43-10.88A17.985,17.985,0,0,1,47.11,11Z" style="fill:#b9b9bd"/><path d="M16,27a5.828,5.828,0,0,1-7,3c-2.681-.874-4.271-3.333-4.8-6.085A11.009,11.009,0,0,0,4,26c0,6.08,6,11,14,11h5.05a12,12,0,0,1,7.29-19.872C23.63,17.152,19.179,21.437,16,27Z" style="fill:#9b9b9e"/><path d="M35.143,17.422c.2.054.4.105.591.168A12.991,12.991,0,0,1,47.034,11h.11a18,18,0,0,0-1.111-1.908C37.581,9.876,35.573,15.574,35.143,17.422Z" style="fill:#9b9b9e"/><circle cx="40" cy="29" r="3" style="fill:#f0faff"/><path d="M48,28H43.858a3.915,3.915,0,0,0-.425-1.019l2.224-2.224a1,1,0,1,0-1.414-1.414l-2.224,2.224A3.915,3.915,0,0,0,41,25.142V21a1,1,0,0,0-2,0v4.142a3.915,3.915,0,0,0-1.019.425l-2.224-2.224a1,1,0,1,0-1.414,1.414l2.224,2.224A3.915,3.915,0,0,0,36.142,28H32a1,1,0,0,0,0,2h4.142a3.915,3.915,0,0,0,.425,1.019l-2.224,2.224a1,1,0,1,0,1.414,1.414l2.224-2.224A3.915,3.915,0,0,0,39,32.858V37a1,1,0,0,0,2,0V32.858a3.915,3.915,0,0,0,1.019-.425l2.224,2.224a1,1,0,1,0,1.414-1.414l-2.224-2.224A3.915,3.915,0,0,0,43.858,30H48a1,1,0,0,0,0-2Zm-8,3a2,2,0,1,1,2-2A2,2,0,0,1,40,31Z" style="fill:#f0faff"/><circle cx="28" cy="41" r="3" style="fill:#dbf7ff"/><path d="M36,40H31.858a3.915,3.915,0,0,0-.425-1.019l2.224-2.224a1,1,0,1,0-1.414-1.414l-2.224,2.224A3.915,3.915,0,0,0,29,37.142V33a1,1,0,0,0-2,0v4.142a3.915,3.915,0,0,0-1.019.425l-2.224-2.224a1,1,0,1,0-1.414,1.414l2.224,2.224A3.915,3.915,0,0,0,24.142,40H20a1,1,0,0,0,0,2h4.142a3.915,3.915,0,0,0,.425,1.019l-2.224,2.224a1,1,0,1,0,1.414,1.414l2.224-2.224A3.915,3.915,0,0,0,27,44.858V49a1,1,0,0,0,2,0V44.858a3.915,3.915,0,0,0,1.019-.425l2.224,2.224a1,1,0,1,0,1.414-1.414l-2.224-2.224A3.915,3.915,0,0,0,31.858,42H36a1,1,0,0,0,0-2Zm-8,3a2,2,0,1,1,2-2A2,2,0,0,1,28,43Z" style="fill:#dbf7ff"/><path d="M3,56.739H3a1.917,1.917,0,0,1-.732-2.657l1-1.685A2.031,2.031,0,0,1,6,51.685H6a1.916,1.916,0,0,1,.732,2.657l-1,1.685A2.031,2.031,0,0,1,3,56.739Z" style="fill:#83d9f2"/><path d="M8,48.315H8a1.916,1.916,0,0,1-.732-2.657l1-1.685A2.031,2.031,0,0,1,11,43.261h0a1.917,1.917,0,0,1,.732,2.657l-1,1.685A2.031,2.031,0,0,1,8,48.315Z" style="fill:#83d9f2"/><path d="M11,62.739h0a1.917,1.917,0,0,1-.732-2.657l1-1.685A2.031,2.031,0,0,1,14,57.685h0a1.916,1.916,0,0,1,.732,2.657l-1,1.685A2.031,2.031,0,0,1,11,62.739Z" style="fill:#83d9f2"/><path d="M16,54.315h0a1.916,1.916,0,0,1-.732-2.657l1-1.685A2.031,2.031,0,0,1,19,49.261h0a1.917,1.917,0,0,1,.732,2.657l-1,1.685A2.031,2.031,0,0,1,16,54.315Z" style="fill:#83d9f2"/><path d="M39,56.739h0a1.917,1.917,0,0,1-.732-2.657l1-1.685A2.031,2.031,0,0,1,42,51.685h0a1.916,1.916,0,0,1,.732,2.657l-1,1.685A2.031,2.031,0,0,1,39,56.739Z" style="fill:#83d9f2"/><path d="M44,48.315h0a1.916,1.916,0,0,1-.732-2.657l1-1.685A2.031,2.031,0,0,1,47,43.261h0a1.917,1.917,0,0,1,.732,2.657l-1,1.685A2.031,2.031,0,0,1,44,48.315Z" style="fill:#83d9f2"/><path d="M26,62.739h0a1.917,1.917,0,0,1-.732-2.657l1-1.685A2.031,2.031,0,0,1,29,57.685h0a1.916,1.916,0,0,1,.732,2.657l-1,1.685A2.031,2.031,0,0,1,26,62.739Z" style="fill:#83d9f2"/><path d="M47,62.739h0a1.917,1.917,0,0,1-.732-2.657l1-1.685A2.031,2.031,0,0,1,50,57.685h0a1.916,1.916,0,0,1,.732,2.657l-1,1.685A2.031,2.031,0,0,1,47,62.739Z" style="fill:#83d9f2"/><path d="M52,54.315h0a1.916,1.916,0,0,1-.732-2.657l1-1.685A2.031,2.031,0,0,1,55,49.261h0a1.917,1.917,0,0,1,.732,2.657l-1,1.685A2.031,2.031,0,0,1,52,54.315Z" style="fill:#83d9f2"/></g></svg>