<svg xmlns="http://www.w3.org/2000/svg" viewBox="0 0 64 64"><g id="_14-Isolated_T-Storms" data-name="14-Isolated T-Storms"><circle cx="16" cy="16" r="9" style="fill:#ffb145"/><path d="M5,17H2a1,1,0,0,1,0-2H5a1,1,0,0,1,0,2Z" style="fill:#ffdc78"/><path d="M30,17H27a1,1,0,0,1,0-2h3a1,1,0,0,1,0,2Z" style="fill:#ffdc78"/><path d="M16,6a1,1,0,0,1-1-1V2a1,1,0,0,1,2,0V5A1,1,0,0,1,16,6Z" style="fill:#ffdc78"/><path d="M16,31a1,1,0,0,1-1-1V27a1,1,0,0,1,2,0v3A1,1,0,0,1,16,31Z" style="fill:#ffdc78"/><path d="M23.778,9.222a1,1,0,0,1-.707-1.707l2.222-2.222a1,1,0,1,1,1.414,1.414L24.485,8.929A1,1,0,0,1,23.778,9.222Z" style="fill:#ffdc78"/><path d="M6,27a1,1,0,0,1-.707-1.707l2.222-2.222a1,1,0,1,1,1.414,1.414L6.707,26.707A1,1,0,0,1,6,27Z" style="fill:#ffdc78"/><path d="M8.222,9.222a1,1,0,0,1-.707-.293L5.293,6.707A1,1,0,0,1,6.707,5.293L8.929,7.515a1,1,0,0,1-.707,1.707Z" style="fill:#ffdc78"/><path d="M25.722,26.722a1,1,0,0,1-.707-.293l-2.222-2.222a1,1,0,0,1,1.414-1.414l2.222,2.222a1,1,0,0,1-.707,1.707Z" style="fill:#ffdc78"/><path d="M20.036,7.964A8.987,8.987,0,0,1,7.964,20.036,8.995,8.995,0,1,0,20.036,7.964Z" style="fill:#fca124"/><path d="M51.491,21.894A16.064,16.064,0,0,0,37.107,13C29.42,13,24.584,17.821,23,25A10,10,0,0,0,13,35c0,6,5.357,10,12.5,10H51.393a11.553,11.553,0,1,0,.1-23.106Z" style="fill:#b9b9bd"/><path d="M45,42a8.8,8.8,0,0,1-.52,3H25.5c-6.05,0-10.82-2.87-12.14-7.41a3.166,3.166,0,0,1-.12-.44c-.04-.17-.07-.34-.1-.52a5.969,5.969,0,0,1-.09-.61c-.03-.33-.05-.67-.05-1.02a10,10,0,0,1,19.89-1.43A8.9,8.9,0,0,1,36,33,9,9,0,0,1,45,42Z" style="fill:#d2d2d6"/><path d="M47.977,40.046A9.489,9.489,0,0,0,36.546,31.2,12.5,12.5,0,0,0,24.5,22c-.2,0-.4.021-.595.03A19.913,19.913,0,0,0,23,25a9.993,9.993,0,0,1,9.769,7.936c.044.21.09.419.121.634A8.9,8.9,0,0,1,36,33a9.1,9.1,0,0,1,.909.046A9,9,0,0,1,45,42a8.8,8.8,0,0,1-.52,3h6.913a11.584,11.584,0,0,0,11.462-9.816C57.083,42.735,51.335,41.723,47.977,40.046Z" style="fill:#9b9b9e"/><path d="M44.857,56.767h0a1.755,1.755,0,0,1-.627-2.377L46.8,49.87a1.7,1.7,0,0,1,2.342-.637h0a1.755,1.755,0,0,1,.627,2.377L47.2,56.13A1.7,1.7,0,0,1,44.857,56.767Z" style="fill:#83d9f2"/><path d="M24.857,56.767h0a1.755,1.755,0,0,1-.627-2.377L26.8,49.87a1.7,1.7,0,0,1,2.342-.637h0a1.755,1.755,0,0,1,.627,2.377L27.2,56.13A1.7,1.7,0,0,1,24.857,56.767Z" style="fill:#83d9f2"/><path d="M31.692,63a1.78,1.78,0,0,1-.838-.208,1.533,1.533,0,0,1-.631-2.163L36.836,49.8a1.759,1.759,0,0,1,2.31-.591,1.533,1.533,0,0,1,.631,2.163L33.164,62.2A1.718,1.718,0,0,1,31.692,63Z" style="fill:#83d9f2"/></g></svg>