<svg xmlns="http://www.w3.org/2000/svg" viewBox="0 0 64 64"><g id="_17-fair_weather" data-name="17-fair weather"><path d="M63,44c-4,7-13.18,11-22,11A26,26,0,0,1,15,29,26.362,26.362,0,0,1,39,3a26.435,26.435,0,0,0-5,15A26,26,0,0,0,60,44Z" style="fill:#ffdc78"/><path d="M21,27A26.254,26.254,0,0,1,36.111,3.424,26.351,26.351,0,0,0,15,29,26,26,0,0,0,41,55a29.985,29.985,0,0,0,12.409-2.7A30.249,30.249,0,0,1,47,53,26,26,0,0,1,21,27Z" style="fill:#ffb145"/><path d="M45.17,24.03a6.5,6.5,0,0,1,12.35-.98A3.906,3.906,0,0,1,58,23a5,5,0,0,1,0,10H46c-3,0-5-2.01-5-4.5A4.488,4.488,0,0,1,45.17,24.03Z" style="fill:#ccf3ff"/><path d="M49.732,27.023A4.471,4.471,0,0,1,53.081,28.8,4.92,4.92,0,0,1,53,28a4.984,4.984,0,0,1,4.519-4.952,6.5,6.5,0,0,0-12.349.982c-.017,0-.032.007-.048.008.127-.011.248-.038.378-.038A4.488,4.488,0,0,1,49.732,27.023Z" style="fill:#b5eeff"/><path d="M46.5,23a3.467,3.467,0,0,0-1.054.179,6.309,6.309,0,0,0-.276.851c-.017,0-.032.007-.048.008.127-.011.248-.038.378-.038a4.488,4.488,0,0,1,4.232,3.023c.072,0,.142.016.213.023A3.431,3.431,0,0,0,46.5,23Z" style="fill:#9ee2f7"/><path d="M52.011,27.787a4.521,4.521,0,0,1,1.07,1.014A4.92,4.92,0,0,1,53,28a4.984,4.984,0,0,1,4.519-4.952c-.01-.024-.025-.046-.035-.07a6.426,6.426,0,0,0-.463-.891A5.991,5.991,0,0,0,52.011,27.787Z" style="fill:#9ee2f7"/><path d="M9.18,45a11.985,11.985,0,0,1,23.13-1.98A8.993,8.993,0,0,1,32,61H9A8,8,0,0,1,9,45c.06,0,.12.01.18.01Z" style="fill:#c2f1ff"/><path d="M25.18,61h-16c-.14,0-.28,0-.41-.01a7.993,7.993,0,0,1,0-15.98c.09,0,.18-.01.28-.01.04,0,.09.01.13.01V45a8,8,0,0,1,8,8A8,8,0,0,1,25.18,61Z" style="fill:#d9f6ff"/><path d="M41,52a9,9,0,0,1-9,9H25.18a8.239,8.239,0,0,0-.25-2,8.361,8.361,0,0,0-.33-1,8.008,8.008,0,0,0-7.42-5,8,8,0,0,0-8-8,11.652,11.652,0,0,1,.48-1.87,6.734,6.734,0,0,1,1.11-.12c.09,0,.18-.01.28-.01.04,0,.09.01.13.01V43a8,8,0,0,1,8,8,8,8,0,0,1,7.65,5.644A1.966,1.966,0,0,0,28.721,58H31.48a9.708,9.708,0,0,0,9.42-7.36A10.122,10.122,0,0,1,41,52Z" style="fill:#b2deeb"/></g></svg>