<svg xmlns="http://www.w3.org/2000/svg" viewBox="0 0 64 64"><g id="_20-Fine" data-name="20-Fine"><path d="M63,42c-4,7-13.18,11-22,11A26,26,0,0,1,15,27,26.362,26.362,0,0,1,39,1a26.435,26.435,0,0,0-5,15A26,26,0,0,0,60,42Z" style="fill:#ffdc78"/><path d="M21,25A26.254,26.254,0,0,1,36.111,1.424,26.351,26.351,0,0,0,15,27,26,26,0,0,0,41,53a29.985,29.985,0,0,0,12.409-2.7A30.249,30.249,0,0,1,47,51,26,26,0,0,1,21,25Z" style="fill:#ffb145"/><path d="M9.18,47a11.985,11.985,0,0,1,23.13-1.98A8.993,8.993,0,0,1,32,63H9A8,8,0,0,1,9,47c.06,0,.12.01.18.01Z" style="fill:#c2f1ff"/><path d="M25.18,63h-16c-.14,0-.28,0-.41-.01a7.993,7.993,0,0,1,0-15.98c.09,0,.18-.01.28-.01.04,0,.09.01.13.01V47a8,8,0,0,1,8,8A8,8,0,0,1,25.18,63Z" style="fill:#d9f6ff"/><path d="M41,54a9,9,0,0,1-9,9H25.18a8.239,8.239,0,0,0-.25-2,8.361,8.361,0,0,0-.33-1,8.008,8.008,0,0,0-7.42-5,8,8,0,0,0-8-8,11.652,11.652,0,0,1,.48-1.87,6.734,6.734,0,0,1,1.11-.12c.09,0,.18-.01.28-.01.04,0,.09.01.13.01V45a8,8,0,0,1,8,8,8,8,0,0,1,7.65,5.644A1.966,1.966,0,0,0,28.721,60H31.48a9.708,9.708,0,0,0,9.42-7.36A10.122,10.122,0,0,1,41,54Z" style="fill:#b2deeb"/><polygon points="44 11 45.545 14.292 49 14.82 46.5 17.382 47.09 21 44 19.292 40.91 21 41.5 17.382 39 14.82 42.455 14.292 44 11" style="fill:#ffdc78"/><polygon points="54 23 55.545 26.292 59 26.82 56.5 29.382 57.09 33 54 31.292 50.91 33 51.5 29.382 49 26.82 52.455 26.292 54 23" style="fill:#ffdc78"/></g></svg>