<svg xmlns="http://www.w3.org/2000/svg" viewBox="0 0 64 64"><g id="_22-Moon_Phase" data-name="22-Moon Phase"><path d="M32,1A31,31,0,1,1,1,32,31,31,0,0,1,32,1ZM59,32A27,27,0,0,0,32,5a26.572,26.572,0,0,0-5,.47,27,27,0,0,1,0,53.06A26.572,26.572,0,0,0,32,59,27,27,0,0,0,59,32Z" style="fill:#7d7d80"/><path d="M32,5a27,27,0,0,1,0,54,26.572,26.572,0,0,1-5-.47A27,27,0,0,0,27,5.47,26.572,26.572,0,0,1,32,5Z" style="fill:#ffdc78"/><path d="M49.906,46.744A1,1,0,0,1,48.4,45.468,26.993,26.993,0,0,0,28.646,5.253a1.113,1.113,0,0,0-.294,0c-.454.062-.906.132-1.352.217A26.988,26.988,0,0,1,39.573,52.486h0c-.4.339-.81.655-1.225.97A26.844,26.844,0,0,1,27,58.53c.494.094.993.17,1.5.236h0c.324.042.649.084.978.115Q30.723,59,32,59A27,27,0,0,0,57.273,41.5a1,1,0,0,0-1.759-.907A31.165,31.165,0,0,1,49.906,46.744Z" style="fill:#fca124"/><path d="M11.2,47.793A32.668,32.668,0,0,1,1.084,34.174,31,31,0,1,0,60.916,20.826c.05.719.084,1.442.084,2.174a30.909,30.909,0,0,1-2.1,11.207A27,27,0,0,1,32,59q-1.276,0-2.522-.118T27,58.53a26.877,26.877,0,0,0,12.573-6.044c-.03.01-.06.017-.089.027A26.95,26.95,0,0,0,27,5.47q1.221-.234,2.478-.352C28.661,5.044,27.836,5,27,5a26.572,26.572,0,0,0-5,.47A27,27,0,0,1,44,32c0,.09,0,.181,0,.271C43.841,48.961,24.285,58.155,11.2,47.793Z" style="fill:#666669"/><circle cx="11" cy="39" r="2" style="fill:#666669"/><circle cx="33" cy="16" r="2" style="fill:#666669"/><circle cx="34" cy="37" r="1" style="fill:#666669"/><circle cx="32" cy="23" r="1" style="fill:#666669"/><circle cx="20" cy="33" r="1" style="fill:#666669"/><circle cx="8" cy="24" r="1" style="fill:#666669"/><circle cx="24" cy="45" r="3" style="fill:#666669"/><circle cx="38" cy="27" r="3" style="fill:#666669"/></g></svg>