<svg xmlns="http://www.w3.org/2000/svg" viewBox="0 0 64 64"><g id="_23-Humidity" data-name="23-Humidity"><path d="M49.54,37H14.46A18,18,0,1,0,50,41,18.164,18.164,0,0,0,49.54,37Z" style="fill:#5ec8e6"/><path d="M54,41a22,22,0,0,1-44,0C10,30.66,23.81,8.03,30.22,1.72a2.56,2.56,0,0,1,3.56,0C40.19,8.03,54,30.66,54,41Zm-4,0a18.164,18.164,0,0,0-.46-4H14.46A18,18,0,1,0,50,41Z" style="fill:#c2f1ff"/><path d="M14.835,37H14.46A18,18,0,0,0,47.851,49.531,21.993,21.993,0,0,1,14.835,37Z" style="fill:#26a5c9"/><path d="M47.851,49.531A17.99,17.99,0,0,1,14.46,37h.375A22,22,0,0,1,14,31a22.181,22.181,0,0,1,1.034-5.981C12.1,31.083,10,36.974,10,41a22,22,0,0,0,43.8,2.921A22.107,22.107,0,0,1,47.851,49.531Z" style="fill:#a4eaff"/><path d="M35,13.072a2,2,0,0,1-1.672-.9c-.234-.356-.469-.7-.7-1.05a2,2,0,1,1,3.31-2.244q.366.537.732,1.1A2,2,0,0,1,35,13.072Z" style="fill:#fff"/><path d="M46.326,35a2,2,0,0,1-1.89-1.35,93.18,93.18,0,0,0-7.484-15.643,2,2,0,1,1,3.455-2.016,97.869,97.869,0,0,1,7.81,16.357A2,2,0,0,1,46.326,35Z" style="fill:#fff"/><path d="M26,54a1,1,0,0,1-.707-1.707l12-12a1,1,0,0,1,1.414,1.414l-12,12A1,1,0,0,1,26,54Z" style="fill:#fff"/><path d="M36,55a3,3,0,1,1,3-3A3,3,0,0,1,36,55Zm0-4a1,1,0,1,0,1,1A1,1,0,0,0,36,51Z" style="fill:#fff"/><path d="M28,45a3,3,0,1,1,3-3A3,3,0,0,1,28,45Zm0-4a1,1,0,1,0,1,1A1,1,0,0,0,28,41Z" style="fill:#fff"/></g></svg>