<svg xmlns="http://www.w3.org/2000/svg" viewBox="0 0 64 64"><g id="_25-Celsius" data-name="25-Celsius"><path d="M24,40.6a12,12,0,1,1-12,0V7a6,6,0,0,1,6-6,6.009,6.009,0,0,1,6,6Z" style="fill:#ffb145"/><path d="M18,63A12.005,12.005,0,0,1,7.2,45.763a2,2,0,0,1,3.6,1.748A7.916,7.916,0,0,0,10,51a8,8,0,1,0,15.335-3.2A2,2,0,1,1,29,46.2,12,12,0,0,1,18,63Z" style="fill:#fc9508"/><rect x="12" y="6" width="3" height="33" rx="1.5" style="fill:#fc9508"/><rect x="21" y="6" width="3" height="33" rx="1.5" style="fill:#fc9508"/><rect x="18" y="11" width="6" height="2" style="fill:#a66205"/><rect x="18" y="17" width="6" height="2" style="fill:#a66205"/><rect x="18" y="23" width="6" height="2" style="fill:#a66205"/><rect x="18" y="29" width="6" height="2" style="fill:#a66205"/><rect x="18" y="35" width="6" height="2" style="fill:#a66205"/><path d="M26,52a1,1,0,0,1-1-1,7.007,7.007,0,0,0-3.61-6.125,1,1,0,1,1,.97-1.75A9.011,9.011,0,0,1,27,51,1,1,0,0,1,26,52Z" style="fill:#f7f7fc"/><path d="M24.929,56a1,1,0,0,1-.865-1.5,7.164,7.164,0,0,0,.428-.876,1,1,0,1,1,1.853.752A8.919,8.919,0,0,1,25.8,55.5,1,1,0,0,1,24.929,56Z" style="fill:#f7f7fc"/><rect x="21" y="11" width="3" height="2" style="fill:#804b04"/><rect x="21" y="17" width="3" height="2" style="fill:#804b04"/><rect x="21" y="23" width="3" height="2" style="fill:#804b04"/><rect x="21" y="29" width="3" height="2" style="fill:#804b04"/><rect x="21" y="35" width="3" height="2" style="fill:#804b04"/><circle cx="55" cy="4" r="3" style="fill:#ffb145"/><path d="M52,29v2a8,8,0,0,1-8,8H39a9,9,0,0,1-9-9V16a9,9,0,0,1,9-9h5a8,8,0,0,1,8,8v2H48V15a4,4,0,0,0-4-4H40a6,6,0,0,0-6,6V29a6,6,0,0,0,6,6h4a4,4,0,0,0,4-4V29Z" style="fill:#ffb145"/></g></svg>