<svg xmlns="http://www.w3.org/2000/svg" viewBox="0 0 64 64"><g id="_26-Falen_Hein" data-name="26-Falen Hein"><path d="M24,40.6a12,12,0,1,1-12,0V7a6,6,0,0,1,6-6,6.009,6.009,0,0,1,6,6Z" style="fill:#a4eaff"/><path d="M18,63A12.005,12.005,0,0,1,7.2,45.763a2,2,0,0,1,3.6,1.748A7.916,7.916,0,0,0,10,51a8,8,0,1,0,15.335-3.2A2,2,0,1,1,29,46.2,12,12,0,0,1,18,63Z" style="fill:#5ec8e6"/><rect x="12" y="6" width="3" height="33" rx="1.5" style="fill:#5ec8e6"/><rect x="21" y="6" width="3" height="33" rx="1.5" style="fill:#5ec8e6"/><rect x="18" y="11" width="6" height="2" style="fill:#26a5c9"/><rect x="18" y="17" width="6" height="2" style="fill:#26a5c9"/><rect x="18" y="23" width="6" height="2" style="fill:#26a5c9"/><rect x="18" y="29" width="6" height="2" style="fill:#26a5c9"/><rect x="18" y="35" width="6" height="2" style="fill:#26a5c9"/><path d="M26,52a1,1,0,0,1-1-1,7.007,7.007,0,0,0-3.61-6.125,1,1,0,1,1,.97-1.75A9.011,9.011,0,0,1,27,51,1,1,0,0,1,26,52Z" style="fill:#f7f7fc"/><path d="M24.929,56a1,1,0,0,1-.865-1.5,7.164,7.164,0,0,0,.428-.876,1,1,0,1,1,1.853.752A8.919,8.919,0,0,1,25.8,55.5,1,1,0,0,1,24.929,56Z" style="fill:#f7f7fc"/><rect x="21" y="11" width="3" height="2" style="fill:#2190b0"/><rect x="21" y="17" width="3" height="2" style="fill:#2190b0"/><rect x="21" y="23" width="3" height="2" style="fill:#2190b0"/><rect x="21" y="29" width="3" height="2" style="fill:#2190b0"/><rect x="21" y="35" width="3" height="2" style="fill:#2190b0"/><circle cx="55" cy="4" r="3" style="fill:#5ec8e6"/><path d="M48,7v5H34v6H46v4H34V39H30V9a2.006,2.006,0,0,1,2-2Z" style="fill:#5ec8e6"/></g></svg>