<svg xmlns="http://www.w3.org/2000/svg" viewBox="0 0 64 64"><g id="_28-Hot" data-name="28-Hot"><path d="M24,40.6V7a6.009,6.009,0,0,0-6-6,6,6,0,0,0-6,6V40.6a12,12,0,1,0,12,0ZM17.07,58.95A8,8,0,0,1,15,43.59V20a3,3,0,0,1,6,0V43.59a8,8,0,0,1-3.93,15.36Z" style="fill:#e8f0f2"/><path d="M18,63A12.005,12.005,0,0,1,7.2,45.763a2,2,0,0,1,3.6,1.748A7.916,7.916,0,0,0,10,51a8,8,0,1,0,15.335-3.2A2,2,0,1,1,29,46.2,12,12,0,0,1,18,63Z" style="fill:#fafaff"/><rect x="21" y="10" width="3" height="25" rx="1.5" style="fill:#fafaff"/><rect x="12" y="10" width="3" height="25" rx="1.5" style="fill:#fafaff"/><path d="M21,43.589a8,8,0,1,1-6,0V8a3,3,0,0,1,6,0v35.59Z" style="fill:#ffdc78"/><path d="M21,43.59a8,8,0,1,1-6,0V20a3,3,0,0,1,6,0V43.59Z" style="fill:#ffb145"/><path d="M17.069,55.949a8.04,8.04,0,0,1-6.923-6.45,8.115,8.115,0,0,0-.077,2.55,8,8,0,1,0,15.778-2.531A8,8,0,0,1,17.069,55.949Z" style="fill:#fc9508"/><path d="M21.318,57a1,1,0,0,1-.553-1.834,4.926,4.926,0,0,0,.569-.439,1,1,0,1,1,1.332,1.492,7.289,7.289,0,0,1-.8.615A1,1,0,0,1,21.318,57Z" style="fill:#f7f7fc"/><path d="M23.918,53a1.055,1.055,0,0,1-.167-.014,1,1,0,0,1-.82-1.152,5.009,5.009,0,0,0-3.264-5.549,1,1,0,0,1,.666-1.887A7.012,7.012,0,0,1,25,51a7.084,7.084,0,0,1-.1,1.166A1,1,0,0,1,23.918,53Z" style="fill:#f7f7fc"/><path d="M21,10a1,1,0,0,1-.893-.548A2.722,2.722,0,0,0,18,8a2.723,2.723,0,0,0-2.108,1.453,1,1,0,0,1-1.787-.9A4.693,4.693,0,0,1,18,6,4.693,4.693,0,0,1,21.9,8.553,1,1,0,0,1,21,10Z" style="fill:#fc9508"/><path d="M21,15a1,1,0,0,1-.893-.548A2.722,2.722,0,0,0,18,13a2.723,2.723,0,0,0-2.108,1.453,1,1,0,0,1-1.787-.9A4.693,4.693,0,0,1,18,11,4.693,4.693,0,0,1,21.9,13.553,1,1,0,0,1,21,15Z" style="fill:#fc9508"/><path d="M51,40.5v1a1.5,1.5,0,0,1-3,0v-1a1.5,1.5,0,0,1,3,0Z" style="fill:#ffb145"/><path d="M45,47.5v3a1.5,1.5,0,0,1-3,0v-3a1.5,1.5,0,0,1,3,0Z" style="fill:#ffb145"/><path d="M45,29.95V40.38a1.5,1.5,0,1,1-3,0V29.81a10.958,10.958,0,0,1-4-1.6V34.5a1.5,1.5,0,0,1-3,0V25.31a10.993,10.993,0,1,1,16,2.18V34.5a1.5,1.5,0,0,1-3,0V29.24A11.05,11.05,0,0,1,45,29.95Z" style="fill:#ffb145"/><path d="M49.5,42A1.5,1.5,0,0,1,48,40.5v1a1.5,1.5,0,0,0,3,0v-1A1.5,1.5,0,0,1,49.5,42Z" style="fill:#fc9508"/><path d="M43.5,50A1.5,1.5,0,0,1,42,48.5v2a1.5,1.5,0,0,0,3,0v-2A1.5,1.5,0,0,1,43.5,50Z" style="fill:#fc9508"/><path d="M36.5,33A1.5,1.5,0,0,1,35,31.5v3a1.5,1.5,0,0,0,3,0v-3A1.5,1.5,0,0,1,36.5,33Z" style="fill:#fc9508"/><path d="M43.5,39A1.565,1.565,0,0,1,42,37.38v3a1.5,1.5,0,1,0,3,0v-3A1.565,1.565,0,0,1,43.5,39Z" style="fill:#fc9508"/><path d="M33.111,17.519A11.124,11.124,0,0,0,33,19a10.912,10.912,0,0,0,2,6.31v-3A10.914,10.914,0,0,1,33.111,17.519Z" style="fill:#fc9508"/><path d="M38,25.21v3a10.958,10.958,0,0,0,4,1.6v-3A10.958,10.958,0,0,1,38,25.21Z" style="fill:#fc9508"/><path d="M51,24.49v3A10.993,10.993,0,0,0,55,19a11.182,11.182,0,0,0-.113-1.5A11,11,0,0,1,51,24.49Z" style="fill:#fc9508"/><path d="M45,26.95v3a11.05,11.05,0,0,0,3-.71v-3A11.05,11.05,0,0,1,45,26.95Z" style="fill:#fc9508"/><path d="M49.5,33A1.5,1.5,0,0,1,48,31.5v3a1.5,1.5,0,0,0,3,0v-3A1.5,1.5,0,0,1,49.5,33Z" style="fill:#fc9508"/><path d="M61,20H57a1,1,0,0,1,0-2h4a1,1,0,0,1,0,2Z" style="fill:#ffdc78"/><path d="M31,20H27a1,1,0,0,1,0-2h4a1,1,0,0,1,0,2Z" style="fill:#ffdc78"/><path d="M44,7a1,1,0,0,1-1-1V2a1,1,0,0,1,2,0V6A1,1,0,0,1,44,7Z" style="fill:#ffdc78"/><path d="M34.1,10.1a1,1,0,0,1-.707-.293L30.565,6.979a1,1,0,1,1,1.414-1.414l2.829,2.829A1,1,0,0,1,34.1,10.1Z" style="fill:#ffdc78"/><path d="M53.9,10.1a1,1,0,0,1-.707-1.707l2.829-2.829a1,1,0,1,1,1.414,1.414L54.606,9.808A1,1,0,0,1,53.9,10.1Z" style="fill:#ffdc78"/></g></svg>