<svg xmlns="http://www.w3.org/2000/svg" viewBox="0 0 64 64"><g id="_29-Snowflake" data-name="29-Snowflake"><polygon points="32.77 30.15 34.83 29.17 33.85 31.23 36 32 33.85 32.77 34.83 34.83 32.77 33.85 32 36 31.23 33.85 29.17 34.83 30.15 32.77 28 32 30.15 31.23 29.17 29.17 31.23 30.15 32 28 32.77 30.15" style="fill:#5ec8e6"/><path d="M34.83,34.83l-.98-2.06L36,32l-2.15-.77.98-2.06-2.06.98L32,28l-.77,2.15-2.06-.98.98,2.06L28,32l2.15.77-.98,2.06,2.06-.98L32,36l.77-2.15Zm2.74-5.06L44,32.14l-6.48,2.22,2.86,6.23-6.15-3.02L31.86,44l-2.22-6.48-6.23,2.86,3.02-6.15L20,31.86l6.48-2.22-2.86-6.23,6.15,3.02L32.14,20l2.22,6.48,6.23-2.86Z" style="fill:#b2deeb"/><path d="M62,31H57.763l3.878-3.231a1,1,0,0,0-1.282-1.538L54.637,31H49.763l3.878-3.231a1,1,0,0,0-1.282-1.538L46.637,31H44a.921.921,0,0,0-.129.026l-4.914-1.811,2.53-5.154a.979.979,0,0,0,.061-.2l1.513-1.513,7.409-.666a1,1,0,0,0-.18-1.993l-5.022.452L48.711,16.7l7.42-.677a1,1,0,1,0-.182-1.992l-5.028.459,3.706-3.706a1,1,0,0,0-1.414-1.414l-3.706,3.706.459-5.028a1,1,0,0,0-1.992-.182l-.677,7.42-3.443,3.443.452-5.022a1,1,0,0,0-1.993-.18l-.666,7.409L39.783,22.8a.934.934,0,0,0-.083.125L34.948,25.11l-1.862-5.434A1.011,1.011,0,0,0,33,19.513v-2.15l4.769-5.722a1,1,0,1,0-1.538-1.282L33,14.237V9.363l4.769-5.722a1,1,0,1,0-1.538-1.282L33,6.237V2a1,1,0,0,0-2,0V6.237L27.769,2.359a1,1,0,0,0-1.538,1.282L31,9.363v4.874l-3.231-3.878a1,1,0,0,0-1.538,1.282L31,17.363V20a.921.921,0,0,0,.026.129l-1.811,4.914-5.154-2.53a.979.979,0,0,0-.2-.061l-1.513-1.513-.666-7.409a1,1,0,0,0-1.993.18l.452,5.022L16.7,15.289l-.677-7.42a1,1,0,1,0-1.992.182l.459,5.028L10.787,9.373a1,1,0,0,0-1.414,1.414l3.706,3.706-5.028-.459a1,1,0,0,0-.182,1.992l7.42.677,3.443,3.443-5.022-.452a1,1,0,0,0-.18,1.993l7.409.666L22.8,24.217a.934.934,0,0,0,.125.083l2.182,4.752-5.434,1.862a1.011,1.011,0,0,0-.163.086h-2.15l-5.722-4.769a1,1,0,0,0-1.282,1.538L14.237,31H9.363L3.641,26.231a1,1,0,0,0-1.282,1.538L6.237,31H2a1,1,0,0,0,0,2H6.237L2.359,36.231a1,1,0,0,0,1.282,1.538L9.363,33h4.874l-3.878,3.231a1,1,0,0,0,1.282,1.538L17.363,33H20a.921.921,0,0,0,.129-.026l4.914,1.811-2.53,5.154a.979.979,0,0,0-.061.2l-1.513,1.513-7.409.666a1,1,0,0,0,.18,1.993l5.022-.452L15.289,47.3l-7.42.677a1,1,0,1,0,.182,1.992l5.028-.459L9.373,53.213a1,1,0,1,0,1.414,1.414l3.706-3.706-.459,5.028a1,1,0,0,0,.9,1.087c.032,0,.062,0,.092,0a1,1,0,0,0,.995-.909l.677-7.42,3.443-3.443-.452,5.022a1,1,0,0,0,.907,1.086c.03,0,.06,0,.09,0a1,1,0,0,0,1-.91l.666-7.409L24.217,41.2a.934.934,0,0,0,.083-.125l4.752-2.182,1.862,5.434a1.011,1.011,0,0,0,.086.163v2.15l-4.769,5.722a1,1,0,1,0,1.538,1.282L31,49.763v4.874l-4.769,5.722a1,1,0,1,0,1.538,1.282L31,57.763V62a1,1,0,0,0,2,0V57.763l3.231,3.878a1,1,0,1,0,1.538-1.282L33,54.637V49.763l3.231,3.878a1,1,0,1,0,1.538-1.282L33,46.637V44a.921.921,0,0,0-.026-.129l1.811-4.914,5.154,2.53a.991.991,0,0,0,.2.062l1.512,1.512.666,7.409a1,1,0,0,0,1,.91c.03,0,.06,0,.09,0a1,1,0,0,0,.907-1.086l-.452-5.022L47.3,48.711l.677,7.42a1,1,0,0,0,1,.909c.03,0,.06,0,.092,0a1,1,0,0,0,.905-1.087l-.459-5.028,3.706,3.706a1,1,0,0,0,1.414-1.414l-3.706-3.706,5.028.459a1,1,0,0,0,.182-1.992l-7.42-.677-3.443-3.443,5.022.452a1,1,0,0,0,.18-1.993l-7.409-.666L41.2,39.783a.934.934,0,0,0-.125-.083L38.89,34.948l5.434-1.862A1.011,1.011,0,0,0,44.487,33h2.15l5.722,4.769a1,1,0,0,0,1.282-1.538L49.763,33h4.874l5.722,4.769a1,1,0,0,0,1.282-1.538L57.763,33H62a1,1,0,0,0,0-2ZM37.2,33.414a1,1,0,0,0-.585,1.363L38.3,38.454l-3.628-1.781a1,1,0,0,0-1.379.552l-1.4,3.791L30.586,37.2a1,1,0,0,0-1.363-.585L25.546,38.3l1.781-3.628a1,1,0,0,0-.552-1.379l-3.791-1.4,3.821-1.309a1,1,0,0,0,.585-1.363L25.7,25.546l3.628,1.781a1,1,0,0,0,1.379-.552l1.4-3.791,1.309,3.821a1,1,0,0,0,1.363.585L38.454,25.7l-1.781,3.628a1,1,0,0,0,.552,1.379l3.791,1.4Z" style="fill:#dbf7ff"/><path d="M36.169,31.529l-1.63-.583.742-1.561a.5.5,0,0,0-.666-.666l-1.561.742-.583-1.63a.522.522,0,0,0-.942,0l-.583,1.63-1.561-.742a.5.5,0,0,0-.666.666l.742,1.561-1.63.583a.5.5,0,0,0,0,.942l1.63.583-.742,1.561a.5.5,0,0,0,.666.666l1.561-.742.583,1.63a.5.5,0,0,0,.942,0l.583-1.63,1.561.742a.5.5,0,0,0,.666-.666l-.742-1.561,1.63-.583a.5.5,0,0,0,0-.942ZM33.4,32.984l.375.789-.789-.375a.5.5,0,0,0-.685.283l-.3.835-.3-.835a.5.5,0,0,0-.28-.293.486.486,0,0,0-.191-.038.5.5,0,0,0-.214.048l-.789.375.375-.789a.5.5,0,0,0-.283-.685l-.835-.3.835-.3a.5.5,0,0,0,.283-.685l-.375-.789.789.375a.5.5,0,0,0,.685-.283l.3-.835.3.835a.5.5,0,0,0,.685.283l.789-.375-.375.789a.5.5,0,0,0,.283.685l.835.3-.835.3a.5.5,0,0,0-.283.685Z" style="fill:#dbf7ff"/></g></svg>