<svg xmlns="http://www.w3.org/2000/svg" viewBox="0 0 64 64"><g id="_30-UV_Index" data-name="30-UV Index"><circle cx="32" cy="32" r="20" style="fill:#ffb145"/><path d="M36,44A19.93,19.93,0,0,1,16.591,19.252a19.993,19.993,0,1,0,34.818,17.5A19.956,19.956,0,0,1,36,44Z" style="fill:#fca124"/><path d="M32,10a1,1,0,0,1-1-1V2a1,1,0,0,1,2,0V9A1,1,0,0,1,32,10Z" style="fill:#ffdc78"/><path d="M62,33H55a1,1,0,0,1,0-2h7a1,1,0,0,1,0,2Z" style="fill:#ffdc78"/><path d="M9,33H2a1,1,0,0,1,0-2H9a1,1,0,0,1,0,2Z" style="fill:#ffdc78"/><path d="M15.736,16.736a1,1,0,0,1-.707-.293L9.373,10.787a1,1,0,0,1,1.414-1.414l5.656,5.656a1,1,0,0,1-.707,1.707Z" style="fill:#ffdc78"/><path d="M10.08,54.92a1,1,0,0,1-.707-1.707l5.656-5.656a1,1,0,1,1,1.414,1.414l-5.656,5.656A1,1,0,0,1,10.08,54.92Z" style="fill:#ffdc78"/><path d="M48.264,16.736a1,1,0,0,1-.707-1.707l5.656-5.656a1,1,0,0,1,1.414,1.414l-5.656,5.656A1,1,0,0,1,48.264,16.736Z" style="fill:#ffdc78"/><path d="M43,41V54.75A8.128,8.128,0,0,1,35,63h0a8.128,8.128,0,0,1-8-8.25V41h4V55a4,4,0,0,0,4,4h0a4,4,0,0,0,4-4V41Z" style="fill:#ffdc78"/><polygon points="63 41 55 63 47 41 51 41 55 54 59 41 63 41" style="fill:#ffdc78"/></g></svg>